<svg xmlns="http://www.w3.org/2000/svg" viewBox="0 0 512 512">
  <defs>
    <linearGradient id="bg" x1="0" y1="0" x2="1" y2="1">
      <stop offset="0%" stop-color="#FFC42E"/>
      <stop offset="55%" stop-color="#FFB800"/>
      <stop offset="100%" stop-color="#FF8A00"/>
    </linearGradient>
    <radialGradient id="shine" cx="30%" cy="20%" r="60%">
      <stop offset="0%" stop-color="rgba(255,255,255,0.45)"/>
      <stop offset="60%" stop-color="rgba(255,255,255,0)"/>
    </radialGradient>
    <filter id="soft" x="-20%" y="-20%" width="140%" height="140%">
      <feGaussianBlur stdDeviation="2" />
    </filter>
  </defs>

  <rect width="512" height="512" rx="112" fill="url(#bg)"/>
  <rect width="512" height="512" rx="112" fill="url(#shine)"/>

  <g transform="translate(256 256)">
    <g filter="url(#soft)" opacity="0.25">
      <path
        d="M0 -176 L34 -110 L116 -100 L60 -48 L100 32 L20 16 L0 96 L-20 16 L-100 32 L-60 -48 L-116 -100 L-34 -110 Z"
        transform="translate(0 8)"
        fill="#7A4A00"
      />
    </g>

    <path
      d="M0 -176 L34 -110 L116 -100 L60 -48 L100 32 L20 16 L0 96 L-20 16 L-100 32 L-60 -48 L-116 -100 L-34 -110 Z"
      fill="#FFFFFF"
    />

    <circle r="22" fill="#FFB800"/>
    <circle r="10" fill="#FFFFFF" opacity="0.85"/>
  </g>

  <g transform="translate(256 432)">
    <text
      text-anchor="middle"
      font-family="Pretendard, system-ui, -apple-system, 'Apple SD Gothic Neo', sans-serif"
      font-weight="800"
      font-size="44"
      letter-spacing="-1"
      fill="#FFFFFF"
    >표도 노트</text>
  </g>
</svg>
